<svg xmlns="http://www.w3.org/2000/svg" version="1.0" width="600" height="600" viewBox="0 0 600.000000 600.000000" preserveAspectRatio="xMidYMid meet"><g transform="translate(0.000000,600.000000) scale(0.100000,-0.100000)" fill="#113A34" stroke="none"><path d="M2010 4634 c-45 -20 -87 -60 -111 -106 -18 -36 -19 -74 -19 -1110 l0 -1073 173 -152 172 -152 3 194 2 194 108 57 c59 31 166 88 237 127 72 38 154 83 183 98 l52 28 0 -608 0 -609 91 -81 92 -81 77 70 c42 38 82 76 89 83 8 10 12 213 13 718 l3 704 275 148 c151 82 281 151 287 154 10 4 13 -122 15 -597 l3 -602 183 162 182 161 0 1051 c0 758 -3 1061 -11 1089 -16 52 -61 103 -112 128 -35 17 -62 21 -145 21 l-102 0 0 -504 0 -504 -62 -35 c-35 -19 -108 -58 -163 -87 -55 -29 -113 -60 -130 -70 -16 -9 -79 -43 -140 -75 -60 -32 -123 -65 -140 -75 -16 -9 -73 -40 -125 -67 -273 -145 -708 -377 -727 -389 -12 -8 -25 -14 -28 -14 -3 0 -5 331 -5 735 l0 735 290 0 290 0 2 -504 3 -504 178 96 177 97 -2 505 -3 505 -25 45 c-14 24 -45 58 -68 75 l-44 30 -491 2 c-423 2 -497 0 -527 -13z"/></g></svg>